<?xml version="1.0" standalone="no"?>
<!DOCTYPE svg PUBLIC "-//W3C//DTD SVG 20010904//EN"
 "http://www.w3.org/TR/2001/REC-SVG-20010904/DTD/svg10.dtd">
<svg version="1.0" xmlns="http://www.w3.org/2000/svg"
 width="200.000000pt" height="200.000000pt" viewBox="0 0 200.000000 200.000000"
 preserveAspectRatio="xMidYMid meet">

<g transform="translate(0.000000,200.000000) scale(0.100000,-0.100000)"
fill="#3E8C68" stroke="none">
<path d="M1422 1864 c-33 -14 -52 -55 -52 -115 0 -39 0 -39 -40 -39 -38 0 -40
2 -40 31 0 20 -10 40 -29 60 l-29 29 -209 0 c-287 -1 -273 15 -273 -295 l0
-217 34 -34 34 -34 201 0 201 0 31 28 c17 16 34 42 38 62 6 32 10 35 44 38
l37 3 0 -291 0 -291 -22 12 c-13 7 -54 33 -93 57 -188 121 -365 158 -557 117
-109 -23 -151 -46 -198 -110 -47 -63 -112 -110 -168 -119 -111 -20 -122 -40
-122 -220 0 -134 0 -136 28 -166 22 -26 37 -32 84 -37 52 -5 58 -9 81 -44 l26
-39 -149 0 c-161 0 -160 0 -160 -60 0 -65 -75 -60 881 -60 l869 0 0 60 0 60
-149 0 -150 0 26 40 c22 34 32 40 60 40 45 0 97 23 117 51 19 28 22 129 4 180
-30 88 -118 167 -204 184 l-34 6 0 533 c0 516 -1 534 -20 558 -24 31 -59 39
-98 22z m66 -46 c9 -9 12 -143 12 -540 0 -574 4 -540 -54 -518 l-26 10 0 523
c0 288 3 527 7 530 11 11 48 8 61 -5z m-254 -50 c13 -19 16 -58 16 -230 0
-195 -1 -209 -20 -228 -19 -19 -33 -20 -207 -20 -252 0 -233 -21 -233 252 0
195 1 209 20 228 19 19 33 20 214 20 190 0 195 -1 210 -22z m136 -118 c0 -17
-7 -20 -40 -20 -33 0 -40 3 -40 20 0 17 7 20 40 20 33 0 40 -3 40 -20z m0
-110 l0 -40 -40 0 -40 0 0 40 0 40 40 0 40 0 0 -40z m0 -100 c0 -17 -7 -20
-40 -20 -33 0 -40 3 -40 20 0 17 7 20 40 20 33 0 40 -3 40 -20z m-330 -509
c61 -19 102 -42 301 -165 69 -43 84 -48 164 -56 69 -7 98 -15 134 -37 65 -41
104 -108 109 -189 6 -84 -10 -104 -80 -104 -44 0 -48 2 -48 24 0 31 -38 85
-79 113 -88 60 -222 0 -246 -109 l-7 -28 -288 0 -288 0 -7 28 c-27 110 -158
169 -246 109 -41 -28 -79 -82 -79 -113 0 -22 -4 -24 -47 -24 -77 0 -83 11 -83
162 0 115 2 130 20 148 11 11 32 20 47 20 35 0 118 39 160 74 17 14 44 47 60
71 31 49 84 76 186 95 79 14 242 4 317 -19z m-433 -451 c17 -10 37 -29 44 -42
18 -33 15 -99 -6 -131 -67 -102 -225 -54 -225 68 0 98 104 156 187 105z m940
-24 c27 -29 33 -44 33 -81 0 -37 -6 -52 -33 -81 -67 -73 -176 -49 -206 44 -40
128 115 217 206 118z m-229 -166 l23 -40 -341 0 -341 0 23 40 23 40 295 0 295
0 23 -40z m512 -100 c0 -20 -7 -20 -830 -20 -823 0 -830 0 -830 20 0 20 7 20
830 20 823 0 830 0 830 -20z"/>
<path d="M927 1703 c-4 -3 -7 -78 -7 -165 0 -146 1 -159 18 -156 13 2 18 15
20 61 l3 57 40 0 c46 0 94 22 109 49 5 11 10 36 10 56 0 47 -13 71 -50 90 -29
15 -131 21 -143 8z m138 -53 c8 -7 15 -27 15 -46 0 -41 -29 -64 -82 -64 l-38
0 0 66 0 67 45 -5 c25 -3 52 -11 60 -18z"/>
<path d="M700 894 c-48 -13 -67 -26 -147 -107 -51 -50 -93 -97 -93 -104 0 -10
90 -13 435 -13 378 0 435 2 435 15 0 8 -60 55 -133 104 -112 74 -144 91 -204
105 -88 20 -219 20 -293 0z m90 -104 l0 -80 -127 0 -127 0 64 65 c60 61 89 78
150 88 14 2 28 5 33 6 4 0 7 -35 7 -79z m184 65 c55 -12 90 -28 163 -76 51
-34 93 -63 93 -65 0 -2 -90 -4 -200 -4 l-200 0 0 80 0 80 38 0 c20 0 68 -7
106 -15z"/>
<path d="M842 618 c-19 -19 6 -38 52 -38 54 0 75 13 57 34 -16 19 -91 22 -109
4z"/>
<path d="M505 448 c-31 -17 -45 -39 -45 -72 1 -77 102 -114 145 -53 50 71 -25
166 -100 125z m56 -38 c41 -22 8 -91 -35 -74 -26 10 -32 55 -11 71 22 16 21
16 46 3z"/>
<path d="M1405 438 c-49 -42 -28 -129 34 -143 52 -11 100 27 100 80 0 72 -80
109 -134 63z m79 -34 c9 -8 16 -22 16 -29 0 -13 -26 -45 -36 -45 -39 0 -59 60
-26 79 23 14 28 14 46 -5z"/>
</g>
</svg>
